<?xml version="1.0" encoding="utf-8"?>
<svg viewBox="130.036 153.25 23.727 33.828" xmlns="http://www.w3.org/2000/svg" xmlns:bx="https://boxy-svg.com">
  <defs>
    <filter id="drop-shadow-filter-0" x="-500%" y="-500%" width="1000%" height="1000%" bx:preset="drop-shadow 1 3 3 2 0.4 rgba(15,15,15,0.3)">
      <feGaussianBlur in="SourceAlpha" stdDeviation="2"/>
      <feOffset dx="3" dy="3"/>
      <feComponentTransfer result="offsetblur">
        <feFuncA id="spread-ctrl" type="linear" slope="0.8"/>
      </feComponentTransfer>
      <feFlood flood-color="rgba(15,15,15,0.3)"/>
      <feComposite in2="offsetblur" operator="in"/>
      <feMerge>
        <feMergeNode/>
        <feMergeNode in="SourceGraphic"/>
      </feMerge>
    </filter>
  </defs>
  <path d="M 136.073 179.487 L 136.073 168.207 C 136.093 167.814 136.046 166.964 135.933 165.657 L 138.013 165.377 L 138.313 167.167 C 138.873 166.794 139.43 166.467 139.983 166.187 C 140.536 165.907 141.1 165.66 141.673 165.447 C 142.253 165.234 142.813 165.127 143.353 165.127 C 144.12 165.127 144.76 165.214 145.273 165.387 C 145.786 165.567 146.203 165.86 146.523 166.267 C 146.836 166.68 147.063 167.224 147.203 167.897 C 147.343 168.57 147.413 169.41 147.413 170.417 L 147.413 179.487 L 145.173 179.487 L 145.173 170.667 C 145.173 170.107 145.166 169.607 145.153 169.167 C 145.133 168.727 145.053 168.354 144.913 168.047 C 144.773 167.74 144.556 167.504 144.263 167.337 C 143.976 167.17 143.573 167.087 143.053 167.087 C 142.566 167.087 142.053 167.194 141.513 167.407 C 140.966 167.62 140.433 167.867 139.913 168.147 C 139.393 168.427 138.86 168.754 138.313 169.127 L 138.313 179.487 L 136.073 179.487 Z" transform="matrix(1, 0, 0, 1, 0, 0)" style="fill: rgb(109, 81, 109); white-space: pre;"/>
  <rect style="filter: url(#drop-shadow-filter-0); isolation: isolate; mix-blend-mode: hard-light; fill: rgb(32, 42, 65);" x="130.536" y="161.422" width="22.727" height="23.31" rx="2" ry="2"/>
  <path d="M 132.536 160.922 L 151.263 160.922 C 151.917 160.944 152.606 161.229 153.031 161.654 C 153.456 162.079 153.741 162.768 153.763 163.422 L 153.763 182.732 C 153.741 183.386 153.456 184.075 153.031 184.5 C 152.606 184.925 151.917 185.21 151.263 185.232 L 132.536 185.232 C 131.882 185.21 131.193 184.925 130.768 184.5 C 130.343 184.075 130.058 183.386 130.036 182.732 L 130.036 163.422 C 130.058 162.768 130.343 162.079 130.768 161.654 C 131.193 161.229 131.882 160.944 132.536 160.922 Z M 131.475 162.361 C 131.176 162.66 131.014 162.972 131.036 163.422 L 131.036 182.732 C 131.014 183.182 131.176 183.494 131.475 183.793 C 131.774 184.092 132.086 184.254 132.536 184.232 L 151.263 184.232 C 151.713 184.254 152.025 184.092 152.324 183.793 C 152.623 183.494 152.785 183.182 152.763 182.732 L 152.763 163.422 C 152.785 162.972 152.623 162.66 152.324 162.361 C 152.025 162.062 151.713 161.9 151.263 161.922 L 132.536 161.922 C 132.086 161.9 131.774 162.062 131.475 162.361 Z" style="fill: none;"/>
</svg>