<?xml version="1.0" encoding="UTF-8" standalone="no"?>
<!DOCTYPE svg PUBLIC "-//W3C//DTD SVG 1.1//EN" "http://www.w3.org/Graphics/SVG/1.1/DTD/svg11.dtd">
<svg version="1.1" xmlns="http://www.w3.org/2000/svg" xmlns:xlink="http://www.w3.org/1999/xlink" preserveAspectRatio="xMidYMid meet" viewBox="0 0 640 640" width="640" height="640"><defs><path d="M514.09 153.05C525.31 153.05 534.41 162.15 534.41 173.37C534.41 256.76 534.41 486.63 534.41 570.02C534.41 581.24 525.31 590.34 514.09 590.34C432.39 590.34 207.61 590.34 125.91 590.34C114.69 590.34 105.59 581.24 105.59 570.02C105.59 486.63 105.59 256.76 105.59 173.37C105.59 162.15 114.69 153.05 125.91 153.05C207.61 153.05 432.39 153.05 514.09 153.05Z" id="c1zIn3TTun"></path><path d="M209.72 284.68C210.1 277.24 209.21 261.15 207.07 236.42C209.69 236.06 222.82 234.3 246.44 231.12C249.84 251.45 251.74 262.74 252.12 265C262.72 257.94 273.26 251.75 283.73 246.45C294.19 241.15 304.87 236.47 315.71 232.44C326.69 228.41 337.29 226.38 347.51 226.38C362.03 226.38 374.14 228.03 383.85 231.31C393.56 234.71 401.46 240.26 407.51 247.96C413.44 255.78 417.73 266.08 420.38 278.81C423.03 291.55 424.36 307.45 424.36 326.51C424.36 337.96 424.36 395.18 424.36 498.19L381.96 498.19C381.96 398.02 381.96 342.37 381.96 331.24C381.96 320.64 381.83 311.18 381.58 302.85C381.2 294.52 379.69 287.46 377.04 281.65C374.39 275.84 370.28 271.38 364.74 268.21C359.3 265.05 351.68 263.48 341.83 263.48C332.62 263.48 322.91 265.51 312.68 269.54C302.33 273.57 292.24 278.25 282.4 283.55C272.56 288.85 262.47 295.04 252.12 302.1C252.12 315.17 252.12 380.53 252.12 498.19L209.72 498.19C209.72 370.08 209.72 298.92 209.72 284.68Z" id="cy8DAhLwU"></path></defs><g><g><g><g><filter id="shadow10182476" x="83.59" y="131.05" width="479.81" height="488.29" filterUnits="userSpaceOnUse" primitiveUnits="userSpaceOnUse"><feFlood></feFlood><feComposite in2="SourceAlpha" operator="in"></feComposite><feGaussianBlur stdDeviation="1.73"></feGaussianBlur><feOffset dx="7" dy="7" result="afterOffset"></feOffset><feFlood flood-color="#000000" flood-opacity="0.57"></feFlood><feComposite in2="afterOffset" operator="in"></feComposite><feMorphology operator="dilate" radius="4"></feMorphology><feComposite in2="SourceAlpha" operator="out"></feComposite></filter><path d="M514.09 153.05C525.31 153.05 534.41 162.15 534.41 173.37C534.41 256.76 534.41 486.63 534.41 570.02C534.41 581.24 525.31 590.34 514.09 590.34C432.39 590.34 207.61 590.34 125.91 590.34C114.69 590.34 105.59 581.24 105.59 570.02C105.59 486.63 105.59 256.76 105.59 173.37C105.59 162.15 114.69 153.05 125.91 153.05C207.61 153.05 432.39 153.05 514.09 153.05Z" id="c4t2Wqj3uB" fill="white" fill-opacity="1" filter="url(#shadow10182476)"></path></g><use xlink:href="#c1zIn3TTun" opacity="1" fill="#363941" fill-opacity="1"></use></g><g><use xlink:href="#cy8DAhLwU" opacity="1" fill="#8a508a" fill-opacity="1"></use><g><use xlink:href="#cy8DAhLwU" opacity="1" fill-opacity="0" stroke="#000000" stroke-width="1" stroke-opacity="0"></use></g></g></g></g></svg>