<?xml version="1.0" encoding="utf-8"?>
<svg viewBox="237.554 152.672 23.727 33.813" xmlns="http://www.w3.org/2000/svg" xmlns:bx="https://boxy-svg.com">
  <defs>
    <filter id="filter-1" x="-500%" y="-500%" width="1000%" height="1000%" bx:preset="drop-shadow 1 3 3 2 0.4 rgba(15,15,15,0.3)">
      <feGaussianBlur in="SourceAlpha" stdDeviation="2"/>
      <feOffset dx="3" dy="3"/>
      <feComponentTransfer result="offsetblur">
        <feFuncA id="feFuncA-1" type="linear" slope="0.8"/>
      </feComponentTransfer>
      <feFlood flood-color="rgba(15,15,15,0.3)"/>
      <feComposite in2="offsetblur" operator="in"/>
      <feMerge>
        <feMergeNode/>
        <feMergeNode in="SourceGraphic"/>
      </feMerge>
    </filter>
  </defs>
  <path d="M 243.591 178.903 L 243.591 167.623 C 243.611 167.23 243.564 166.38 243.451 165.073 L 245.531 164.793 L 245.831 166.583 C 246.391 166.21 246.948 165.883 247.501 165.603 C 248.054 165.323 248.618 165.076 249.191 164.863 C 249.771 164.65 250.331 164.543 250.871 164.543 C 251.638 164.543 252.278 164.63 252.791 164.803 C 253.304 164.983 253.721 165.276 254.041 165.683 C 254.354 166.096 254.581 166.64 254.721 167.313 C 254.861 167.986 254.931 168.826 254.931 169.833 L 254.931 178.903 L 252.691 178.903 L 252.691 170.083 C 252.691 169.523 252.684 169.023 252.671 168.583 C 252.651 168.143 252.571 167.77 252.431 167.463 C 252.291 167.156 252.074 166.92 251.781 166.753 C 251.494 166.586 251.091 166.503 250.571 166.503 C 250.084 166.503 249.571 166.61 249.031 166.823 C 248.484 167.036 247.951 167.283 247.431 167.563 C 246.911 167.843 246.378 168.17 245.831 168.543 L 245.831 178.903 L 243.591 178.903 Z" transform="matrix(1, 0, 0, 1, 0, 0)" style="fill: rgb(166, 124, 166); white-space: pre; mix-blend-mode: darken;"/>
  <rect style="filter: url(#filter-1); mix-blend-mode: hard-light; fill: rgb(104, 119, 155); paint-order: fill;" x="238.054" y="160.838" width="22.727" height="23.31" rx="2" ry="2"/>
  <path d="M 240.054 160.338 L 258.781 160.338 C 259.435 160.36 260.124 160.645 260.549 161.07 C 260.974 161.495 261.259 162.184 261.281 162.838 L 261.281 182.148 C 261.259 182.802 260.974 183.491 260.549 183.916 C 260.124 184.341 259.435 184.626 258.781 184.648 L 240.054 184.648 C 239.4 184.626 238.711 184.341 238.286 183.916 C 237.861 183.491 237.576 182.802 237.554 182.148 L 237.554 162.838 C 237.576 162.184 237.861 161.495 238.286 161.07 C 238.711 160.645 239.4 160.36 240.054 160.338 Z M 238.993 161.777 C 238.694 162.076 238.532 162.388 238.554 162.838 L 238.554 182.148 C 238.532 182.598 238.694 182.91 238.993 183.209 C 239.292 183.508 239.604 183.67 240.054 183.648 L 258.781 183.648 C 259.231 183.67 259.543 183.508 259.842 183.209 C 260.141 182.91 260.303 182.598 260.281 182.148 L 260.281 162.838 C 260.303 162.388 260.141 162.076 259.842 161.777 C 259.543 161.478 259.231 161.316 258.781 161.338 L 240.054 161.338 C 239.604 161.316 239.292 161.478 238.993 161.777 Z" style="fill: none; mix-blend-mode: hard-light;"/>
</svg>